<svg width="70" height="80" fill="none" xmlns="http://www.w3.org/2000/svg"><g clip-path="url(#a)"><path d="M64.553 71.41 70.93 0H0l.083.927L6.367 71.42l.053.587L35.197 80h.453l28.843-8 .054-.587.006-.003ZM35.527 15.597h20.61l-.62 7.2-20.334 9.04.34 1.626h19.08l-2.196 25.17-16.954 4.7-16.946-4.693-1.067-12.053h6.977l.56 6.11.053.593 10.283 2.733h.444l10.17-2.826.05-.59.96-11.287.076-.92H16.857l-.634-7.243 21.03-9.004-.333-1.633h-21.6l-.617-6.933h20.8l.024.01Z" fill="#33A1FD"/></g><defs><clipPath id="a"><path fill="#fff" d="M0 0h70v80H0z"/></clipPath></defs></svg>