<svg width="300" height="255" fill="none" xmlns="http://www.w3.org/2000/svg"><g clip-path="url(#a)"><path d="M289.501 106.533c-15.003 19.185-43.312 23.579-66.735 16.897a108.604 108.604 0 0 1-22.048-9.179c-4.06-2.205-8.023-4.623-11.904-7.2a156.845 156.845 0 0 1-2.856-1.926c-.644-.441-1.286-.886-1.926-1.338-8.016-5.64-15.718-11.826-23.291-17.978-18.904-15.355-38.326-31.183-61.552-38.51-4.785-1.509-10.975-2.214-13.934 1.839-2.568 3.52-1 8.502 1.172 12.277 8.058 13.983 22.685 22.811 37.325 29.6 14.64 6.79 30.148 12.29 42.875 22.216 12.726 9.927 22.442 25.703 19.839 41.629-2.243 13.723-13.448 24.873-26.476 29.733-13.028 4.856-27.558 4.18-41.101 1.026-13.542-3.156-26.398-8.663-39.468-13.41-7.88-2.865-18.182-4.846-23.411 1.71-4.416 5.539-1.878 14.277 3.5 18.888 5.377 4.61 12.655 6.154 19.6 7.54 21.562 4.306 43.124 8.611 64.686 12.914 6.614 1.318 13.384 2.697 19.146 6.207 5.763 3.506 10.412 9.631 10.247 16.375-.165 6.647-5.031 12.52-10.994 15.463-5.961 2.939-12.844 3.392-19.484 3.075-24.883-1.191-96.223-40.725-113.333-45.778-10.994-3.244-23.015-8.01-27.652-18.493-5.772-13.051 3.727-28.84 16.693-34.8 12.963-5.964 27.992-4.643 42.12-2.636 14.129 2.007 28.724 4.562 42.477.748 13.753-3.814 26.353-16.246 24.997-30.452-1.182-12.361-12.316-21.675-24.033-25.78-9.171-3.215-18.93-4.09-28.564-5.537-2.674-.398-5.339-.845-7.977-1.395a99.422 99.422 0 0 1-19.668-6.313A101.315 101.315 0 0 1 28.98 73.16a98.836 98.836 0 0 1-13.054-11.335 69.345 69.345 0 0 1-3.5-3.888C5.267 49.38-.024 38.843 1.562 27.984 3.144 17.154 11.585 8.138 21.634 3.806 27.442 1.304 33.707.183 40.05.021a75.692 75.692 0 0 1 13.85.998c21.177 3.386 40.583 13.675 58.91 24.815 18.325 11.14 36.183 23.369 56.103 31.31 19.921 7.945 42.597 11.31 62.805 4.125 20.209-7.18 36.811-26.774 35.824-48.197 13.403 11.542 24.793 26.05 29.837 43 5.044 16.953 3.017 36.527-7.877 50.461Z" fill="#3F3D56"/><path d="M192.928 84.393a2.356 2.356 0 1 0 0-4.712 2.356 2.356 0 0 0 0 4.712Z" fill="#FDCA40"/><path d="M276.132 54.6a3.643 3.643 0 1 0 0-7.286 3.643 3.643 0 0 0 0 7.286ZM37.203 166.911a1.346 1.346 0 1 0 0-2.691 1.346 1.346 0 0 0 0 2.691ZM75.837 88.19c0 1.167-.14 2.33-.421 3.463-2.674-.398-5.339-.845-7.977-1.395a99.415 99.415 0 0 1-19.668-6.313 14.355 14.355 0 0 1 28.066 4.244Z" fill="#FF6584"/><path d="M252.822 75.967a1.377 1.377 0 1 0 0-2.754 1.377 1.377 0 0 0 0 2.754ZM126.882 227.484a1.377 1.377 0 1 0 0-2.754 1.377 1.377 0 0 0 0 2.754ZM146.631 246.585a1.377 1.377 0 1 0 0-2.754 1.377 1.377 0 0 0 0 2.754ZM24.576 192.195a1.377 1.377 0 1 0 0-2.754 1.377 1.377 0 0 0 0 2.754ZM92.24 166.618a1.376 1.376 0 1 0 .001-2.752 1.376 1.376 0 0 0 0 2.752ZM85.442 29.994a1.377 1.377 0 1 0 0-2.753 1.377 1.377 0 0 0 0 2.753ZM168.646 137.804a1.376 1.376 0 1 0 .001-2.753 1.376 1.376 0 0 0-.001 2.753ZM179.007 161.762a1.376 1.376 0 1 0 0-2.752 1.376 1.376 0 0 0 0 2.752Z" fill="#F0F0F0"/><path d="M54.922 33.012a43.85 43.85 0 0 1-4.791 19.995A44.17 44.17 0 0 1 28.98 73.16a98.829 98.829 0 0 1-13.055-11.335 69.492 69.492 0 0 1-3.5-3.888C5.267 49.38-.024 38.843 1.562 27.984 3.145 17.154 11.585 8.138 21.634 3.806 27.442 1.304 33.707.183 40.05.021a44.072 44.072 0 0 1 12.342 18.247 43.952 43.952 0 0 1 2.531 14.744Z" fill="#FDCA40"/><path d="M74.995 35.278c0 6.744-6.585 12.999-18.544 17.619a83.072 83.072 0 0 1-7.648 2.515c-10.081 2.81-22.08 4.368-34.693 4.468a69.345 69.345 0 0 1-1.683-1.942c.136.003.271.003.408.003 13.697 0 26.693-1.736 37.296-4.934a79.232 79.232 0 0 0 5.62-1.923c10.995-4.245 17.301-10.007 17.301-15.806 0-5.798-6.306-11.558-17.3-15.805a72.64 72.64 0 0 0-3.361-1.205 45.003 45.003 0 0 0-.904-2.33 80.868 80.868 0 0 1 4.964 1.722c11.959 4.62 18.544 10.878 18.544 17.618Z" fill="#E4E4E4"/><path d="M14.864 11.217a1.377 1.377 0 1 0 0-2.754 1.377 1.377 0 0 0 0 2.754ZM43.678 19.958a1.377 1.377 0 1 0 0-2.753 1.377 1.377 0 0 0 0 2.753ZM28.785 45.89c7.393 0 13.387-5.994 13.387-13.387 0-7.393-5.994-13.387-13.387-13.387-7.393 0-13.386 5.994-13.386 13.387 0 7.393 5.993 13.386 13.386 13.386Z" fill="#F0F0F0"/><path opacity=".3" d="M276.004 103.354c-3.005.887-9.629 1.541-16.913 1.942-7.281.398-15.268.573-23.155.742-13.805.297-27.609.596-41.411.896-1.898.042-3.801.081-5.711.117-.955-.631-1.91-1.272-2.856-1.926 1.693.009 3.387 0 5.067-.033 7.178-.142 13.254-.702 20.176-.968 10.652-.411 22.151-.087 33.253.078 11.101.168 23.75.107 31.55-.848ZM64.13 205.411l-44.005-36.659 42.75 38.127a1.022 1.022 0 0 0 1.653.142 1.018 1.018 0 0 0-.398-1.61Z" fill="#F0F0F0"/><path d="M30.728 66.578a1.377 1.377 0 1 0 0-2.753 1.377 1.377 0 0 0 0 2.753Z" fill="#F0F0F0"/><path d="m146.342 224.709 5.694-.001 2.709-21.962h-8.404l.001 21.963Z" fill="#FFB6B6"/><path d="M144.889 222.849h1.603l6.257-2.544 3.354 2.544a7.145 7.145 0 0 1 7.146 7.146v.232l-18.359.001-.001-7.379Z" fill="#2F2E41"/><path d="m103.701 224.709-5.694-.001-2.709-21.962h8.404l-.001 21.963Z" fill="#FFB6B6"/><path d="m105.153 230.228-18.36-.001v-.232a7.147 7.147 0 0 1 7.146-7.146l3.355-2.544 6.257 2.544h1.602v7.379Z" fill="#2F2E41"/><path d="m124.103 56.394-5.766 4.39-15.315 4.056s5.488 38.514 2.898 41.104c-2.59 2.59-.254 2.659-.775 6.024-.52 3.365-2.594 12.248-2.594 12.248h45.71s.368-5.521-1.885-6.717c-2.253-1.195 2.077-6.775.236-7.708-1.842-.933.748-9.027.748-9.027l5.613-26.5-14.929-11.68-2.271-5.47-11.67-.72Z" fill="#FDCA40"/><path d="M131.296 90.81a1.995 1.995 0 1 0 0-3.99 1.995 1.995 0 0 0 0 3.99Z" fill="#F2F2F2"/><path d="m102.551 124.216-1.885 48.537s-8.139 35.849-6.725 36.792c1.414.942 2.013 6.562 2.013 6.562l8.011.942s0-3.77 1.885-5.183c1.885-1.414 19.32-67.858 19.32-67.858l17.01 64.242s.426 3.616 1.84 3.616c1.413 0 1.885 5.183 1.885 5.183h8.011v-5.183s3.599-1.142 2.186-4.911c-1.414-3.77-7.841-82.739-7.841-82.739h-45.71Z" fill="#2F2E41"/><path d="M130.09 53.502c5.335 0 9.66-4.326 9.66-9.66 0-5.336-4.325-9.661-9.66-9.661-5.336 0-9.661 4.325-9.661 9.66s4.325 9.66 9.661 9.66Z" fill="#FFB6B6"/><path opacity=".1" d="m146.611 87.224 1.885 1.413.943-6.597-2.828 5.183Z" fill="#000"/><path d="M103.926 64.802s-2.357-.47-3.77 3.77c-1.414 4.242-6.598 20.263-6.598 23.09 0 2.828 32.282 15.304 32.282 15.304l-3.359-11.784-14.786-7.76-3.769-22.62Z" fill="#FDCA40"/><path d="M127.337 105.219a5.504 5.504 0 1 0 0-11.007 5.504 5.504 0 0 0 0 11.007Z" fill="#FFB6B6"/><path opacity=".1" d="m107.265 81.585.431 5.837 13.672 7.176-12.161-8.157-1.942-4.856Z" fill="#000"/><path d="M140.133 82.417h-.177v-4.859a2.818 2.818 0 0 0-.824-1.989 2.811 2.811 0 0 0-1.989-.823h-10.294a2.812 2.812 0 0 0-2.812 2.812v26.657a2.8 2.8 0 0 0 .823 1.988 2.824 2.824 0 0 0 1.989.824h10.294a2.823 2.823 0 0 0 1.989-.824 2.818 2.818 0 0 0 .824-1.988v-18.34h.177v-3.458Z" fill="#2F2E41"/><path d="M152.973 74.265s1.414.942 2.356 5.183c.943 4.241 7.069 20.263 4.713 24.033-2.356 3.77-3.052 7.794-11.063 2.139l-11.085-10.15 8.011-7.54 3.298 2.357 3.77-16.022ZM132.122 86.626a2.356 2.356 0 1 0 0-4.712 2.356 2.356 0 0 0 0 4.712Z" fill="#FDCA40"/><path d="M138.943 94.936a5.504 5.504 0 1 0 0-11.009 5.504 5.504 0 0 0 0 11.01Z" fill="#FFB6B6"/><path opacity=".1" d="m107.005 99.201 15.8 6.989-16.239-3.174.439-3.815Z" fill="#000"/><path d="m120.343 45.766-1.326-5.048c-.346-1.317-.695-2.66-.617-4.02.077-1.36.654-2.763 1.8-3.5 1.145-.736 2.894-.562 3.631.583.14-1.828 1.803-3.235 3.568-3.733 1.765-.498 3.639-.301 5.47-.217 1.832.084 3.766.025 5.347-.904a1.658 1.658 0 0 1-.741 1.956 1.605 1.605 0 0 0 1.941-1.024 4.167 4.167 0 0 1-1.095 2.864 3.068 3.068 0 0 1 3.965 1.123c.807 1.399.355 3.155-.117 4.7l-2.423 7.926c-.368-1.205-.437-2.477-.634-3.721-.196-1.245-.546-2.515-1.367-3.47-.822-.955-2.217-1.509-3.384-1.034-.655.266-1.154.806-1.745 1.193-1.213.795-2.756.909-4.197.747-1.441-.162-2.845-.572-4.286-.736-.902-.103-1.909-.075-2.59.526a3.328 3.328 0 0 0-.886 1.77 14.045 14.045 0 0 0-.375 4.06" fill="#2F2E41"/></g><defs><clipPath id="a"><path fill="#fff" d="M0 0h300v254.468H0z"/></clipPath></defs></svg>