<svg width="80" height="80" fill="none" xmlns="http://www.w3.org/2000/svg"><path fill-rule="evenodd" clip-rule="evenodd" d="M0 0h80v80H0V0Zm61.157 67.067c-3.71 0-5.807-1.934-7.417-4.567l-6.11 3.55c2.207 4.36 6.717 7.687 13.7 7.687 7.14 0 12.457-3.707 12.457-10.477 0-6.277-3.607-9.067-9.994-11.81l-1.88-.803c-3.226-1.4-4.623-2.31-4.623-4.567 0-1.823 1.4-3.22 3.6-3.22 2.157 0 3.547.91 4.837 3.22l5.853-3.757c-2.477-4.356-5.91-6.02-10.69-6.02-6.713 0-11.01 4.294-11.01 9.934 0 6.116 3.6 9.013 9.027 11.323l1.88.807c3.43 1.5 5.473 2.413 5.473 4.99 0 2.153-1.99 3.71-5.103 3.71Zm-29.134-.05c-2.583 0-3.66-1.767-4.84-3.867l-6.12 3.707c1.774 3.753 5.26 6.866 11.277 6.866 6.663 0 11.227-3.543 11.227-11.326V36.73H36.05v25.567c0 3.756-1.56 4.72-4.03 4.72h.003Z" fill="#FDCA40"/></svg>