<svg width="32" height="32" fill="none" xmlns="http://www.w3.org/2000/svg"><path d="M29.333 22.56v4a2.666 2.666 0 0 1-2.906 2.667 26.386 26.386 0 0 1-11.507-4.094 26 26 0 0 1-8-8 26.387 26.387 0 0 1-4.093-11.56A2.667 2.667 0 0 1 5.48 2.667h4a2.667 2.667 0 0 1 2.667 2.293c.168 1.28.482 2.537.933 3.747a2.667 2.667 0 0 1-.6 2.813l-1.693 1.693a21.333 21.333 0 0 0 8 8l1.693-1.693a2.667 2.667 0 0 1 2.813-.6c1.21.451 2.467.764 3.747.933a2.666 2.666 0 0 1 2.293 2.707Z" stroke="#FDCA40" stroke-width="2" stroke-linecap="round" stroke-linejoin="round"/></svg>